#define 1598015419391_width 75
#define 1598015419391_height 75
static char 1598015419391_bits[] = {
  0x00, 0x00, 0x00, 0x00, 0x00, 0x00, 0x00, 0x00, 0x00, 0x00, 0x00, 0x00, 
  0x00, 0x00, 0x00, 0x00, 0x00, 0x00, 0x00, 0x00, 0x00, 0x00, 0x00, 0x00, 
  0x00, 0x00, 0x00, 0x00, 0x00, 0x00, 0x00, 0x00, 0x00, 0x00, 0x00, 0x00, 
  0x00, 0x00, 0x00, 0x00, 0x00, 0x00, 0x00, 0xC0, 0xFF, 0x07, 0x00, 0x00, 
  0x00, 0x00, 0x00, 0x00, 0x00, 0xFC, 0xFF, 0x7F, 0x00, 0x00, 0x00, 0x00, 
  0x00, 0x00, 0x80, 0xFF, 0xFF, 0xFF, 0x03, 0x00, 0x00, 0x00, 0x00, 0x00, 
  0xC0, 0xFF, 0x46, 0xFE, 0x0F, 0x00, 0x00, 0x00, 0x00, 0x00, 0xF8, 0x0F, 
  0x00, 0xE0, 0x3F, 0x00, 0x00, 0x00, 0x00, 0x00, 0xFC, 0x03, 0x00, 0x00, 
  0x7F, 0x00, 0x00, 0x00, 0x00, 0x00, 0x7E, 0x00, 0x00, 0x00, 0xFC, 0x01, 
  0x00, 0x00, 0x00, 0x80, 0x1F, 0x00, 0x00, 0x00, 0xF0, 0x03, 0x00, 0x00, 
  0x00, 0xC0, 0x0F, 0x00, 0x00, 0x00, 0xC0, 0x07, 0x00, 0x00, 0x00, 0xE0, 
  0x03, 0x00, 0x00, 0x00, 0x80, 0x0F, 0x00, 0x00, 0x00, 0xF0, 0x01, 0x00, 
  0x00, 0x00, 0x00, 0x1F, 0x00, 0x00, 0x00, 0xF8, 0x00, 0x00, 0x00, 0x00, 
  0x00, 0x3E, 0x00, 0x00, 0x00, 0x7C, 0x00, 0x00, 0x00, 0x00, 0x00, 0x78, 
  0x00, 0x00, 0x00, 0x3C, 0x00, 0x00, 0x00, 0x00, 0x00, 0xF8, 0x00, 0x00, 
  0x00, 0x1E, 0x00, 0x00, 0x00, 0x00, 0x00, 0xF0, 0x01, 0x00, 0x00, 0x0F, 
  0x00, 0x03, 0x00, 0x00, 0x00, 0xE0, 0x01, 0x00, 0x00, 0x0F, 0x00, 0x0E, 
  0x00, 0x00, 0x00, 0xE0, 0x03, 0x00, 0x80, 0x07, 0x00, 0x3F, 0x00, 0x00, 
  0x00, 0xC0, 0x03, 0x00, 0xC0, 0x03, 0x00, 0xFE, 0x00, 0x00, 0x00, 0x80, 
  0x07, 0x00, 0xC0, 0x03, 0x00, 0xFF, 0x01, 0x00, 0x00, 0x00, 0x07, 0x00, 
  0xC0, 0x01, 0x00, 0xFF, 0x07, 0x00, 0x00, 0x00, 0x0F, 0x00, 0xE0, 0x01, 
  0x00, 0xFE, 0x1F, 0x00, 0x00, 0x00, 0x0F, 0x00, 0xE0, 0x01, 0x00, 0xFF, 
  0x7F, 0x00, 0x00, 0x00, 0x0E, 0x00, 0xF0, 0x00, 0x00, 0xFE, 0xFF, 0x01, 
  0x00, 0x00, 0x1E, 0x00, 0xF0, 0x00, 0x00, 0xFF, 0xFF, 0x07, 0x00, 0x00, 
  0x1E, 0x00, 0xF0, 0x00, 0x00, 0xFF, 0xFF, 0x1F, 0x00, 0x00, 0x1C, 0x00, 
  0x70, 0x00, 0x00, 0xFE, 0xFF, 0x3F, 0x00, 0x00, 0x3C, 0x00, 0x70, 0x00, 
  0x00, 0xFF, 0xFF, 0xFF, 0x00, 0x00, 0x3C, 0x00, 0x78, 0x00, 0x00, 0xFF, 
  0xFF, 0xFF, 0x03, 0x00, 0x3C, 0x00, 0x78, 0x00, 0x00, 0xFE, 0xFF, 0xFF, 
  0x0F, 0x00, 0x38, 0x00, 0x78, 0x00, 0x00, 0xFF, 0xFF, 0xFF, 0x3F, 0x00, 
  0x38, 0x00, 0x38, 0x00, 0x00, 0xFF, 0xFF, 0xFF, 0xFF, 0x00, 0x38, 0x00, 
  0x38, 0x00, 0x00, 0xFE, 0xFF, 0xFF, 0xFF, 0x03, 0x7C, 0x00, 0x78, 0x00, 
  0x00, 0xFF, 0xFF, 0xFF, 0xFF, 0x03, 0x38, 0x00, 0x38, 0x00, 0x00, 0xFF, 
  0xFF, 0xFF, 0xFF, 0x00, 0x38, 0x00, 0x78, 0x00, 0x00, 0xFE, 0xFF, 0xFF, 
  0x7F, 0x00, 0x38, 0x00, 0x78, 0x00, 0x00, 0xFE, 0xFF, 0xFF, 0x1F, 0x00, 
  0x38, 0x00, 0x78, 0x00, 0x00, 0xFF, 0xFF, 0xFF, 0x07, 0x00, 0x3C, 0x00, 
  0x78, 0x00, 0x00, 0xFE, 0xFF, 0xFF, 0x01, 0x00, 0x3C, 0x00, 0x70, 0x00, 
  0x00, 0xFF, 0xFF, 0x7F, 0x00, 0x00, 0x3C, 0x00, 0x70, 0x00, 0x00, 0xFE, 
  0xFF, 0x3F, 0x00, 0x00, 0x1C, 0x00, 0xF0, 0x00, 0x00, 0xFF, 0xFF, 0x0F, 
  0x00, 0x00, 0x1C, 0x00, 0xF0, 0x00, 0x00, 0xFE, 0xFF, 0x03, 0x00, 0x00, 
  0x1E, 0x00, 0xE0, 0x00, 0x00, 0xFF, 0xFF, 0x00, 0x00, 0x00, 0x1E, 0x00, 
  0xE0, 0x01, 0x00, 0xFF, 0x3F, 0x00, 0x00, 0x00, 0x0E, 0x00, 0xE0, 0x01, 
  0x00, 0xFE, 0x1F, 0x00, 0x00, 0x00, 0x0F, 0x00, 0xC0, 0x03, 0x00, 0xFF, 
  0x03, 0x00, 0x00, 0x00, 0x0F, 0x00, 0xC0, 0x03, 0x00, 0xFE, 0x01, 0x00, 
  0x00, 0x80, 0x07, 0x00, 0x80, 0x07, 0x00, 0x7F, 0x00, 0x00, 0x00, 0x80, 
  0x07, 0x00, 0x80, 0x07, 0x00, 0x1F, 0x00, 0x00, 0x00, 0xC0, 0x03, 0x00, 
  0x00, 0x0F, 0x00, 0x0E, 0x00, 0x00, 0x00, 0xE0, 0x01, 0x00, 0x00, 0x1F, 
  0x00, 0x01, 0x00, 0x00, 0x00, 0xE0, 0x01, 0x00, 0x00, 0x1E, 0x00, 0x00, 
  0x00, 0x00, 0x00, 0xF0, 0x00, 0x00, 0x00, 0x7C, 0x00, 0x00, 0x00, 0x00, 
  0x00, 0x78, 0x00, 0x00, 0x00, 0x78, 0x00, 0x00, 0x00, 0x00, 0x00, 0x7C, 
  0x00, 0x00, 0x00, 0xF8, 0x00, 0x00, 0x00, 0x00, 0x00, 0x3E, 0x00, 0x00, 
  0x00, 0xF0, 0x03, 0x00, 0x00, 0x00, 0x00, 0x1F, 0x00, 0x00, 0x00, 0xC0, 
  0x07, 0x00, 0x00, 0x00, 0x80, 0x0F, 0x00, 0x00, 0x00, 0xC0, 0x0F, 0x00, 
  0x00, 0x00, 0xE0, 0x07, 0x00, 0x00, 0x00, 0x00, 0x3F, 0x00, 0x00, 0x00, 
  0xF8, 0x03, 0x00, 0x00, 0x00, 0x00, 0xFE, 0x00, 0x00, 0x00, 0xFE, 0x00, 
  0x00, 0x00, 0x00, 0x00, 0xFC, 0x07, 0x00, 0x80, 0x7F, 0x00, 0x00, 0x00, 
  0x00, 0x00, 0xF0, 0x3F, 0x00, 0xF8, 0x1F, 0x00, 0x00, 0x00, 0x00, 0x00, 
  0xC0, 0xFF, 0xDF, 0xFF, 0x07, 0x00, 0x00, 0x00, 0x00, 0x00, 0x00, 0xFF, 
  0xFF, 0xFF, 0x01, 0x00, 0x00, 0x00, 0x00, 0x00, 0x00, 0xF8, 0xFF, 0x3F, 
  0x00, 0x00, 0x00, 0x00, 0x00, 0x00, 0x00, 0x00, 0xFE, 0x01, 0x00, 0x00, 
  0x00, 0x00, 0x00, 0x00, 0x00, 0x00, 0x00, 0x00, 0x00, 0x00, 0x00, 0x00, 
  0x00, 0x00, 0x00, 0x00, 0x00, 0x00, 0x00, 0x00, 0x00, 0x00, 0x00, 0x00, 
  0x00, 0x00, 0x00, 0x00, 0x00, 0x00, 0x00, 0x00, 0x00, 0x00, 0x00, 0x00, 
  0x00, 0x00, 0x00, 0x00, 0x00, 0x00, };
